<?xml version="1.0" encoding="utf-8"?>
<!-- Generator: Adobe Illustrator 24.2.1, SVG Export Plug-In . SVG Version: 6.00 Build 0)  -->
<svg version="1.1" id="Слой_1" xmlns="http://www.w3.org/2000/svg" xmlns:xlink="http://www.w3.org/1999/xlink" x="0px" y="0px"
	 viewBox="0 0 269 167" style="enable-background:new 0 0 269 167;" xml:space="preserve">
<style type="text/css">
	.st0{fill:#878E9C;}
	.st1{fill:none;stroke:#E6EBF0;}
	.st2{fill:none;stroke:#FFD02C;stroke-width:5;}
</style>
<path class="st0" d="M3.9,8V6.5H0.6L0.4,6L4,1.7h0.6v4.3h1v0.6h-1V8H3.9z M1.2,5.9h2.6V2.7L1.2,5.9z M11.2,7.2
	C10.7,7.8,10,8.1,9.3,8.1c-0.8,0-1.4-0.3-1.9-0.9C6.8,6.5,6.6,5.8,6.6,4.8c0-0.9,0.2-1.7,0.7-2.3c0.5-0.6,1.1-1,1.9-1
	c0.8,0,1.4,0.3,1.9,0.9c0.5,0.6,0.7,1.4,0.7,2.3C11.9,5.8,11.7,6.5,11.2,7.2z M7.9,6.7c0.4,0.5,0.8,0.8,1.4,0.8c0.6,0,1-0.3,1.4-0.8
	c0.4-0.5,0.5-1.1,0.5-1.9c0-0.7-0.2-1.3-0.5-1.8c-0.4-0.5-0.8-0.8-1.4-0.8S8.2,2.5,7.9,3C7.5,3.5,7.3,4.1,7.3,4.8
	C7.3,5.6,7.5,6.2,7.9,6.7z M17.6,7.2c-0.5,0.6-1.1,0.9-1.9,0.9s-1.4-0.3-1.9-0.9C13.3,6.5,13,5.8,13,4.8c0-0.9,0.2-1.7,0.7-2.3
	c0.5-0.6,1.1-1,1.9-1s1.4,0.3,1.9,0.9c0.5,0.6,0.7,1.4,0.7,2.3C18.3,5.8,18.1,6.5,17.6,7.2z M14.3,6.7c0.4,0.5,0.8,0.8,1.4,0.8
	s1-0.3,1.4-0.8c0.4-0.5,0.5-1.1,0.5-1.9c0-0.7-0.2-1.3-0.5-1.8c-0.4-0.5-0.8-0.8-1.4-0.8s-1,0.3-1.4,0.8c-0.4,0.5-0.5,1.1-0.5,1.8
	C13.8,5.6,13.9,6.2,14.3,6.7z"/>
<path class="st0" d="M2.8,44.1c-1,0-1.8-0.4-2.3-1.1L1,42.5c0.5,0.6,1.1,0.9,1.8,0.9c0.4,0,0.7-0.1,1-0.3s0.4-0.5,0.4-0.9
	c0-0.4-0.2-0.7-0.5-0.9C3.4,41.1,2.9,41,2.4,41H2l-0.1-0.4l2-2.2H0.8v-0.6h4v0.5l-2,2.2c0.6,0,1.1,0.2,1.5,0.5
	c0.4,0.3,0.6,0.7,0.6,1.3c0,0.6-0.2,1-0.6,1.4C3.9,43.9,3.4,44.1,2.8,44.1z M10.7,43.2c-0.5,0.6-1.1,0.9-1.9,0.9
	c-0.8,0-1.4-0.3-1.9-0.9c-0.5-0.6-0.7-1.4-0.7-2.3c0-0.9,0.2-1.7,0.7-2.3c0.5-0.6,1.1-1,1.9-1s1.4,0.3,1.9,0.9
	c0.5,0.6,0.7,1.4,0.7,2.3C11.4,41.8,11.2,42.5,10.7,43.2z M7.4,42.7c0.4,0.5,0.8,0.8,1.4,0.8c0.6,0,1-0.3,1.4-0.8
	c0.4-0.5,0.5-1.1,0.5-1.9c0-0.7-0.2-1.3-0.5-1.8c-0.4-0.5-0.8-0.8-1.4-0.8c-0.6,0-1,0.3-1.4,0.8c-0.4,0.5-0.5,1.1-0.5,1.8
	C6.8,41.6,7,42.2,7.4,42.7z M17.1,43.2c-0.5,0.6-1.1,0.9-1.9,0.9c-0.8,0-1.4-0.3-1.9-0.9c-0.5-0.6-0.7-1.4-0.7-2.3
	c0-0.9,0.2-1.7,0.7-2.3c0.5-0.6,1.1-1,1.9-1s1.4,0.3,1.9,0.9c0.5,0.6,0.7,1.4,0.7,2.3C17.8,41.8,17.6,42.5,17.1,43.2z M13.8,42.7
	c0.4,0.5,0.8,0.8,1.4,0.8s1-0.3,1.4-0.8c0.4-0.5,0.5-1.1,0.5-1.9c0-0.7-0.2-1.3-0.5-1.8c-0.4-0.5-0.8-0.8-1.4-0.8
	c-0.6,0-1,0.3-1.4,0.8c-0.4,0.5-0.5,1.1-0.5,1.8C13.2,41.6,13.4,42.2,13.8,42.7z"/>
<path class="st0" d="M0.4,87v-0.5l2.3-2c0.5-0.4,0.8-0.8,1-1.1C3.9,83.1,4,82.8,4,82.5c0-0.4-0.1-0.7-0.4-0.9s-0.5-0.3-0.9-0.3
	c-0.3,0-0.6,0.1-0.9,0.3c-0.3,0.2-0.5,0.4-0.8,0.8L0.5,82c0.3-0.5,0.6-0.8,1-1c0.3-0.2,0.8-0.3,1.3-0.3c0.6,0,1,0.2,1.4,0.5
	c0.4,0.3,0.6,0.8,0.6,1.3c0,0.4-0.1,0.8-0.4,1.2c-0.2,0.3-0.6,0.8-1.2,1.3l-1.7,1.5h3.3V87H0.4z M10.5,86.2
	c-0.5,0.6-1.1,0.9-1.9,0.9s-1.4-0.3-1.9-0.9c-0.5-0.6-0.7-1.4-0.7-2.3c0-0.9,0.2-1.7,0.7-2.3c0.5-0.6,1.1-1,1.9-1s1.4,0.3,1.9,0.9
	c0.5,0.6,0.7,1.4,0.7,2.3C11.3,84.8,11,85.5,10.5,86.2z M7.2,85.7c0.4,0.5,0.8,0.8,1.4,0.8s1-0.3,1.4-0.8c0.4-0.5,0.5-1.1,0.5-1.9
	c0-0.7-0.2-1.3-0.5-1.8c-0.4-0.5-0.8-0.8-1.4-0.8c-0.6,0-1,0.3-1.4,0.8c-0.4,0.5-0.5,1.1-0.5,1.8C6.7,84.6,6.9,85.2,7.2,85.7z
	 M17,86.2c-0.5,0.6-1.1,0.9-1.9,0.9s-1.4-0.3-1.9-0.9c-0.5-0.6-0.7-1.4-0.7-2.3c0-0.9,0.2-1.7,0.7-2.3c0.5-0.6,1.1-1,1.9-1
	c0.8,0,1.4,0.3,1.9,0.9c0.5,0.6,0.7,1.4,0.7,2.3C17.7,84.8,17.5,85.5,17,86.2z M13.7,85.7c0.4,0.5,0.8,0.8,1.4,0.8
	c0.6,0,1-0.3,1.4-0.8c0.4-0.5,0.5-1.1,0.5-1.9c0-0.7-0.2-1.3-0.5-1.8c-0.4-0.5-0.8-0.8-1.4-0.8s-1,0.3-1.4,0.8
	c-0.4,0.5-0.5,1.1-0.5,1.8C13.1,84.6,13.3,85.2,13.7,85.7z"/>
<path class="st0" d="M1.6,127v-5.6l-1.2,0.4l-0.2-0.6l1.5-0.5h0.5v6.3H1.6z M8.4,126.2c-0.5,0.6-1.1,0.9-1.9,0.9s-1.4-0.3-1.9-0.9
	c-0.5-0.6-0.7-1.4-0.7-2.3c0-0.9,0.2-1.7,0.7-2.3c0.5-0.6,1.1-1,1.9-1s1.4,0.3,1.9,0.9c0.5,0.6,0.7,1.4,0.7,2.3
	C9.1,124.8,8.9,125.5,8.4,126.2z M5.1,125.7c0.4,0.5,0.8,0.8,1.4,0.8s1-0.3,1.4-0.8c0.4-0.5,0.5-1.1,0.5-1.9c0-0.7-0.2-1.3-0.5-1.8
	c-0.4-0.5-0.8-0.8-1.4-0.8s-1,0.3-1.4,0.8c-0.4,0.5-0.5,1.1-0.5,1.8C4.5,124.6,4.7,125.2,5.1,125.7z M14.8,126.2
	c-0.5,0.6-1.1,0.9-1.9,0.9s-1.4-0.3-1.9-0.9c-0.5-0.6-0.7-1.4-0.7-2.3c0-0.9,0.2-1.7,0.7-2.3c0.5-0.6,1.1-1,1.9-1
	c0.8,0,1.4,0.3,1.9,0.9c0.5,0.6,0.7,1.4,0.7,2.3C15.5,124.8,15.3,125.5,14.8,126.2z M11.5,125.7c0.4,0.5,0.8,0.8,1.4,0.8
	c0.6,0,1-0.3,1.4-0.8c0.4-0.5,0.5-1.1,0.5-1.9c0-0.7-0.2-1.3-0.5-1.8c-0.4-0.5-0.8-0.8-1.4-0.8s-1,0.3-1.4,0.8
	c-0.4,0.5-0.5,1.1-0.5,1.8C11,124.6,11.1,125.2,11.5,125.7z"/>
<rect x="31.5" y="3.5" class="st1" width="237" height="163"/>
<line class="st1" x1="31" y1="43.5" x2="269" y2="43.5"/>
<line class="st1" x1="65.5" y1="167" x2="65.5" y2="3"/>
<line class="st1" x1="99.5" y1="167" x2="99.5" y2="3"/>
<line class="st1" x1="133.5" y1="167" x2="133.5" y2="3"/>
<line class="st1" x1="167.5" y1="167" x2="167.5" y2="3"/>
<line class="st1" x1="202.5" y1="167" x2="202.5" y2="3"/>
<line class="st1" x1="268.5" y1="167" x2="268.5" y2="3"/>
<line class="st1" x1="233.5" y1="167" x2="233.5" y2="3"/>
<line class="st1" x1="31" y1="86.5" x2="269" y2="86.5"/>
<line class="st1" x1="31" y1="127.5" x2="269" y2="127.5"/>
<path class="st2" d="M31,147.5c6.8-13.7,25.6-47.1,60-55.5c43-10.5,76,19.5,105-9c29-28.5,21-71.5,72-69"/>
</svg>
